<?xml version='1.0' encoding='UTF-8'?>
<svg xmlns="http://www.w3.org/2000/svg" xmlns:svg="http://www.w3.org/2000/svg" width="44" height="44" viewBox="0 0 44 44" version="1.1" id="svg359">
  <defs id="defs359">
    <clipPath id="clip0_23_7120">
      </clipPath>
    <clipPath id="clip1_23_7120">
      </clipPath>
    <clipPath id="clip2_23_7120">
      </clipPath>
    <clipPath id="clip3_23_7120">
      </clipPath>
    <clipPath id="clip4_23_7120">
      </clipPath>
    <clipPath id="clip5_23_7120">
      </clipPath>
    <clipPath id="clip6_23_7120">
      </clipPath>
    <clipPath id="clip7_23_7120">
      </clipPath>
    <clipPath id="clip8_23_7120">
      </clipPath>
    <clipPath id="clip9_23_7120">
      </clipPath>
    <clipPath id="clip10_23_7120">
      </clipPath>
    <clipPath id="clip11_23_7120">
      </clipPath>
    <clipPath id="clip12_23_7120">
      </clipPath>
    <clipPath id="clip13_23_7120">
      </clipPath>
    <clipPath id="clip14_23_7120">
      </clipPath>
  </defs>
<g transform="translate(-630 -2023)"><path d="M643.694 2025.5H657.793L669.5 2037.21V2059.79C669.5 2062.36 667.264 2064.5 664.44 2064.5H643.57C640.735 2064.5 638.5 2062.36 638.5 2059.79V2030.21C638.5 2027.65 640.844 2025.5 643.694 2025.5Z" fill="white" stroke="#DBDBDB" id="path343"/>
  <path d="M658.026 2033.16V2025L670 2037H662.017C658.425 2037 657.859 2034.44 658.026 2033.16Z" fill="#D4D4D8" id="path344"/>
  <rect x="632" y="2044" width="27" height="15" rx="3" fill="#939CA5" id="rect344"/>
  <path d="M636.867 2055V2048.45H641.201V2049.6H638.251V2051.16H640.913V2052.3H638.251V2055H636.867ZM643.515 2048.45V2055H642.131V2048.45H643.515ZM644.654 2055V2048.45H646.038V2053.86H648.844V2055H644.654ZM649.76 2055V2048.45H654.171V2049.6H651.144V2051.16H653.944V2052.3H651.144V2053.86H654.184V2055H649.76Z" fill="white" id="path345"/>
  </g></svg>
