<?xml version='1.0' encoding='UTF-8'?>
<svg xmlns="http://www.w3.org/2000/svg" xmlns:svg="http://www.w3.org/2000/svg" width="24" height="24" viewBox="0 0 24 24" version="1.1" id="svg359">
  <defs id="defs359">
    <clipPath id="clip0_23_7120">
      </clipPath>
    <clipPath id="clip1_23_7120">
      </clipPath>
    <clipPath id="clip2_23_7120">
      </clipPath>
    <clipPath id="clip3_23_7120">
      </clipPath>
    <clipPath id="clip4_23_7120">
      </clipPath>
    <clipPath id="clip5_23_7120">
      </clipPath>
    <clipPath id="clip6_23_7120">
      </clipPath>
    <clipPath id="clip7_23_7120">
      </clipPath>
    <clipPath id="clip8_23_7120">
      </clipPath>
    <clipPath id="clip9_23_7120">
      </clipPath>
    <clipPath id="clip10_23_7120">
      </clipPath>
    <clipPath id="clip11_23_7120">
      </clipPath>
    <clipPath id="clip12_23_7120">
      </clipPath>
    <clipPath id="clip13_23_7120">
      </clipPath>
    <clipPath id="clip14_23_7120">
      </clipPath>
  </defs>
<g transform="translate(-224.0000 -692.9890)"><path d="M240.777 696.368C241.021 696.079 241.323 695.844 241.664 695.678C242.004 695.512 242.376 695.418 242.755 695.402C243.134 695.387 243.512 695.45 243.865 695.587C244.219 695.725 244.539 695.934 244.807 696.201C245.074 696.469 245.282 696.788 245.418 697.14C245.554 697.492 245.615 697.868 245.597 698.244C245.578 698.621 245.481 698.989 245.311 699.326C245.142 699.663 244.903 699.961 244.611 700.201L231.671 713.141L226.4 714.578L227.838 709.307L240.777 696.368Z" stroke="currentColor" stroke-width="1.5" stroke-linecap="round" stroke-linejoin="round" id="path73"/>
  <path d="M238.86 698.284L242.694 702.118" stroke="currentColor" stroke-width="1.5" stroke-linecap="round" stroke-linejoin="round" id="path74"/>
  </g></svg>
