<?xml version='1.0' encoding='UTF-8'?>
<svg xmlns="http://www.w3.org/2000/svg" xmlns:svg="http://www.w3.org/2000/svg" width="24" height="24" viewBox="0 0 24 24" version="1.1" id="svg359">
  <defs id="defs359">
    <clipPath id="clip0_23_7120">
      </clipPath>
    <clipPath id="clip1_23_7120">
      </clipPath>
    <clipPath id="clip2_23_7120">
      </clipPath>
    <clipPath id="clip3_23_7120">
      </clipPath>
    <clipPath id="clip4_23_7120">
      </clipPath>
    <clipPath id="clip5_23_7120">
      </clipPath>
    <clipPath id="clip6_23_7120">
      </clipPath>
    <clipPath id="clip7_23_7120">
      </clipPath>
    <clipPath id="clip8_23_7120">
      </clipPath>
    <clipPath id="clip9_23_7120">
      </clipPath>
    <clipPath id="clip10_23_7120">
      </clipPath>
    <clipPath id="clip11_23_7120">
      </clipPath>
    <clipPath id="clip12_23_7120">
      </clipPath>
    <clipPath id="clip13_23_7120">
      </clipPath>
    <clipPath id="clip14_23_7120">
      </clipPath>
  </defs>
<g transform="translate(-387.1249 -993.3759)"><path d="M406.455 1002.43C406.934 1002.46 407.401 1002.59 407.824 1002.82C408.247 1003.05 408.615 1003.36 408.904 1003.74C409.194 1004.13 409.397 1004.57 409.5 1005.04C409.603 1005.51 409.603 1005.99 409.501 1006.46C409.399 1006.93 409.196 1007.37 408.907 1007.75V1007.75L406.213 1011.35L406.156 1011.42H408.5C408.786 1011.42 409.061 1011.54 409.263 1011.74C409.465 1011.94 409.578 1012.21 409.578 1012.5C409.578 1012.79 409.465 1013.06 409.263 1013.26C409.061 1013.46 408.786 1013.58 408.5 1013.58H404C403.8 1013.58 403.604 1013.52 403.434 1013.42C403.263 1013.31 403.126 1013.16 403.036 1012.98C402.947 1012.8 402.908 1012.6 402.926 1012.4C402.944 1012.2 403.018 1012.01 403.138 1011.85L407.183 1006.46L407.184 1006.46C407.28 1006.34 407.349 1006.19 407.391 1006.04C407.432 1005.89 407.443 1005.74 407.423 1005.58C407.403 1005.43 407.352 1005.28 407.273 1005.15C407.195 1005.01 407.091 1004.89 406.967 1004.8C406.843 1004.71 406.701 1004.64 406.55 1004.6C406.399 1004.56 406.243 1004.55 406.089 1004.58C405.935 1004.6 405.786 1004.65 405.653 1004.73C405.553 1004.79 405.463 1004.87 405.386 1004.96L405.313 1005.04C405.277 1005.09 405.245 1005.14 405.217 1005.2L405.145 1005.36C405.049 1005.63 404.851 1005.85 404.593 1005.97C404.335 1006.1 404.038 1006.11 403.769 1006.02C403.499 1005.92 403.279 1005.72 403.155 1005.46C403.047 1005.24 403.022 1004.98 403.081 1004.74L403.111 1004.64C403.271 1004.19 403.527 1003.78 403.861 1003.43C404.196 1003.09 404.601 1002.82 405.049 1002.65C405.496 1002.47 405.976 1002.4 406.455 1002.43ZM399.5 997.172C399.786 997.172 400.061 997.285 400.263 997.487C400.465 997.689 400.578 997.964 400.578 998.25V1009.5C400.578 1009.79 400.465 1010.06 400.263 1010.26C400.061 1010.46 399.786 1010.58 399.5 1010.58C399.214 1010.58 398.939 1010.46 398.737 1010.26C398.535 1010.06 398.422 1009.79 398.422 1009.5V1004.95H390.828V1009.5C390.828 1009.79 390.715 1010.06 390.513 1010.26C390.311 1010.46 390.036 1010.58 389.75 1010.58C389.464 1010.58 389.189 1010.46 388.987 1010.26C388.785 1010.06 388.672 1009.79 388.672 1009.5V998.25C388.672 997.964 388.785 997.689 388.987 997.487C389.189 997.285 389.464 997.172 389.75 997.172C390.036 997.172 390.311 997.285 390.513 997.487C390.715 997.689 390.828 997.964 390.828 998.25V1002.8H398.422V998.25C398.422 997.964 398.535 997.689 398.737 997.487C398.939 997.285 399.214 997.172 399.5 997.172Z" fill="currentColor" stroke="currentColor" stroke-width="0.09375" id="path219"/>
  </g></svg>
